<?xml version="1.0" encoding="UTF-8"?> <svg xmlns="http://www.w3.org/2000/svg" width="437" height="78" viewBox="0 0 437 78"><g fill="#FFF" fill-rule="evenodd"><path fill-rule="nonzero" d="M148.211376,48.2295409 C148.211376,51.566883 147.00463,54.1962645 144.591102,56.1177645 C142.177574,58.0392644 138.819857,59 134.517849,59 C130.554582,59 127.048667,58.2583796 124,56.7751164 L124,49.4936793 C126.506682,50.6061267 128.628014,51.3898846 130.364061,51.8449767 C132.100107,52.3000688 133.687931,52.5276114 135.127579,52.5276114 C136.855157,52.5276114 138.180461,52.1989387 139.103529,51.5415835 C140.026598,50.8842283 140.488125,49.9066377 140.488125,48.6087824 C140.488125,47.8840061 140.284884,47.239302 139.878395,46.6746507 C139.471906,46.1099994 138.874884,45.5664253 138.087312,45.0439122 C137.29974,44.521399 135.694979,43.687076 133.272983,42.5409182 C131.003419,41.4790366 129.301272,40.4593085 128.166491,39.4817033 C127.031709,38.504098 126.125591,37.3663848 125.44811,36.0685296 C124.770628,34.7706744 124.431892,33.2537235 124.431892,31.5176314 C124.431892,28.2477104 125.545486,25.6773214 127.772707,23.8063872 C129.999927,21.9354531 133.078188,21 137.007581,21 C138.938404,21 140.780279,21.2275426 142.533262,21.6826347 C144.286246,22.1377268 146.119653,22.7782172 148.033538,23.6041251 L145.492995,29.6972721 C143.511372,28.8882195 141.872728,28.3235767 140.577044,28.0033267 C139.281361,27.6830767 138.006868,27.5229541 136.753527,27.5229541 C135.263067,27.5229541 134.119834,27.8684818 133.323793,28.5595476 C132.527753,29.2506133 132.129738,30.1523564 132.129738,31.2648037 C132.129738,31.9558695 132.290638,32.5584361 132.612441,33.0725216 C132.934245,33.5866071 133.446583,34.0838299 134.14947,34.5642049 C134.852357,35.0445799 136.516396,35.9083992 139.141637,37.1556886 C142.61373,38.8075044 144.993349,40.4635091 146.280564,42.1237525 C147.567779,43.7839959 148.211376,45.8192383 148.211376,48.2295409 Z M186.741254,58.4943446 L165.349881,58.4943446 L165.349881,21.5309381 L186.741254,21.5309381 L186.741254,27.9527611 L173.225565,27.9527611 L173.225565,36.0685296 L185.801253,36.0685296 L185.801253,42.4903526 L173.225565,42.4903526 L173.225565,52.0219561 L186.741254,52.0219561 L186.741254,58.4943446 Z M204.895976,58.4943446 L204.895976,21.5309381 L212.77166,21.5309381 L212.77166,52.0219561 L227.837081,52.0219561 L227.837081,58.4943446 L204.895976,58.4943446 Z M252.444782,58.4943446 L244.696125,58.4943446 L244.696125,21.5309381 L265.985877,21.5309381 L265.985877,27.9527611 L252.444782,27.9527611 L252.444782,37.4843646 L265.045876,37.4843646 L265.045876,43.8809049 L252.444782,43.8809049 L252.444782,58.4943446 Z M299.434668,27.5229541 C296.470686,27.5229541 294.175752,28.631171 292.549796,30.8476381 C290.923841,33.0641051 290.110875,36.1527857 290.110875,40.1137725 C290.110875,48.355996 293.218775,52.4770459 299.434668,52.4770459 C302.042972,52.4770459 305.201683,51.828128 308.910894,50.5302728 L308.910894,57.1037924 C305.862227,58.3679371 302.457933,59 298.697911,59 C293.294995,59 289.16242,57.3692778 286.30006,54.1077844 C283.4377,50.8462911 282.006542,46.1648121 282.006542,40.0632069 C282.006542,36.220207 282.709419,32.8534188 284.115193,29.9627412 C285.520967,27.0720636 287.540679,24.8556298 290.174388,23.3133733 C292.808098,21.7711167 295.894827,21 299.434668,21 C303.042258,21 306.66673,21.868033 310.308193,23.6041251 L307.76765,29.9753826 C306.378813,29.3180273 304.981528,28.744957 303.575754,28.2561544 C302.169979,27.7673517 300.789631,27.5229541 299.434668,27.5229541 Z M349.95591,58.4943446 L347.262934,49.6959415 L333.721839,49.6959415 L331.028863,58.4943446 L322.543449,58.4943446 L335.652652,21.3792415 L345.28131,21.3792415 L358.441324,58.4943446 L349.95591,58.4943446 Z M345.382932,43.1224218 C342.893187,35.1498825 341.491668,30.6411673 341.178333,29.5961411 C340.864998,28.5511148 340.640586,27.7252193 340.505089,27.1184298 C339.946167,29.2759034 338.345641,34.6105141 335.703463,43.1224218 L345.382932,43.1224218 Z M395.446876,48.2295409 C395.446876,51.566883 394.24013,54.1962645 391.826602,56.1177645 C389.413074,58.0392644 386.055356,59 381.753348,59 C377.790081,59 374.284166,58.2583796 371.235499,56.7751164 L371.235499,49.4936793 C373.742181,50.6061267 375.863514,51.3898846 377.59956,51.8449767 C379.335607,52.3000688 380.92343,52.5276114 382.363079,52.5276114 C384.090657,52.5276114 385.41596,52.1989387 386.339029,51.5415835 C387.262097,50.8842283 387.723625,49.9066377 387.723625,48.6087824 C387.723625,47.8840061 387.520383,47.239302 387.113894,46.6746507 C386.707405,46.1099994 386.110384,45.5664253 385.322811,45.0439122 C384.535239,44.521399 382.930479,43.687076 380.508482,42.5409182 C378.238919,41.4790366 376.536772,40.4593085 375.40199,39.4817033 C374.267209,38.504098 373.361091,37.3663848 372.683609,36.0685296 C372.006127,34.7706744 371.667392,33.2537235 371.667392,31.5176314 C371.667392,28.2477104 372.780985,25.6773214 375.008206,23.8063872 C377.235427,21.9354531 380.313687,21 384.24308,21 C386.173903,21 388.015778,21.2275426 389.768762,21.6826347 C391.521745,22.1377268 393.355152,22.7782172 395.269038,23.6041251 L392.728495,29.6972721 C390.746871,28.8882195 389.108227,28.3235767 387.812544,28.0033267 C386.51686,27.6830767 385.242367,27.5229541 383.989026,27.5229541 C382.498567,27.5229541 381.355334,27.8684818 380.559293,28.5595476 C379.763252,29.2506133 379.365238,30.1523564 379.365238,31.2648037 C379.365238,31.9558695 379.526137,32.5584361 379.847941,33.0725216 C380.169745,33.5866071 380.682082,34.0838299 381.384969,34.5642049 C382.087857,35.0445799 383.751896,35.9083992 386.377137,37.1556886 C389.84923,38.8075044 392.228848,40.4635091 393.516063,42.1237525 C394.803278,43.7839959 395.446876,45.8192383 395.446876,48.2295409 Z M426.914044,58.4943446 L419.03836,58.4943446 L419.03836,28.0538922 L408.952403,28.0538922 L408.952403,21.5309381 L437,21.5309381 L437,28.0538922 L426.914044,28.0538922 L426.914044,58.4943446 Z"></path><path d="M25.2476407,78 C11.3261496,78 0,66.2008998 0,51.6980835 C0,37.1957183 11.3261496,25.3966181 25.2476407,25.3966181 L25.2476407,38.9287309 C18.4886685,38.9287309 12.9896968,44.6573253 12.9896968,51.6980835 C12.9896968,58.7392929 18.4886685,64.4678873 25.2476407,64.4678873 C32.0066129,64.4678873 37.5055846,58.7392929 37.5055846,51.6980835 L37.5055846,26.3014654 C37.5055846,11.7986491 48.8313012,0 62.7527923,0 C76.6742834,0 88,11.7986491 88,26.3014654 C88,40.8042817 76.6742834,52.6029308 62.7527923,52.6029308 L62.7527923,39.0708181 C69.5117645,39.0708181 75.0103032,33.3426747 75.0103032,26.3014654 C75.0103032,19.2602561 69.5117645,13.5321127 62.7527923,13.5321127 C55.9938201,13.5321127 50.4952814,19.2602561 50.4952814,26.3014654 L50.4952814,51.6980835 C50.4952814,66.2008998 39.1691318,78 25.2476407,78"></path></g></svg> 